<svg width="621" height="481" viewBox="0 0 621 481" fill="none" xmlns="http://www.w3.org/2000/svg">
<path d="M136.624 169.378C133.343 170.3 130.592 171.572 128.446 173.151C126.254 174.764 124.532 176.706 123.328 178.92C122.182 181.03 121.318 183.318 120.763 185.722C120.219 188.076 119.907 190.534 119.834 193.022C119.766 195.41 119.731 197.746 119.731 200.028V288.538C119.731 292.408 120.187 296.114 121.086 299.554C122.008 303.106 123.518 306.247 125.566 308.894C127.644 311.576 130.388 313.735 133.726 315.31C137.038 316.875 141.056 317.67 145.674 317.67C153.452 317.67 159.44 315.396 163.472 310.912C167.44 306.49 169.454 300.416 169.454 292.862V272.066H157.604V292.758C157.604 297.37 156.579 300.9 154.554 303.244C152.583 305.531 149.61 306.644 145.468 306.644C142.93 306.644 140.768 306.202 139.044 305.324C137.312 304.446 135.944 303.263 134.862 301.71C133.748 300.119 132.92 298.208 132.399 296.031C131.856 293.766 131.58 291.244 131.58 288.538V196.531C131.58 192.922 131.962 189.914 132.715 187.596C133.418 185.435 134.49 183.72 135.904 182.504C137.355 181.26 139.263 180.372 141.588 179.868C144.098 179.32 147.17 179.042 150.715 179.042H157.604V213.623H169.454V168.015H148.35C143.798 168.015 139.854 168.471 136.624 169.378Z" fill="white"/>
<path d="M201.662 306.644C199.137 306.644 197.042 306.207 195.431 305.343C193.813 304.479 192.483 303.295 191.477 301.83C190.429 300.302 189.669 298.531 189.214 296.564C188.737 294.494 188.494 292.278 188.494 289.978V194.782C188.494 191.172 188.875 188.168 189.63 185.846C190.327 183.692 191.414 181.982 192.853 180.768C194.347 179.508 196.29 178.6 198.627 178.062C201.133 177.483 204.161 177.19 207.63 177.19H214.519V289.978C214.519 292.334 214.261 294.595 213.754 296.694C213.265 298.711 212.498 300.492 211.482 301.991C210.498 303.435 209.242 304.548 207.643 305.391C206.069 306.224 204.057 306.644 201.662 306.644ZM193.663 167.467C190.366 168.356 187.599 169.632 185.443 171.263C183.265 172.904 181.537 174.852 180.306 177.046C179.113 179.171 178.243 181.455 177.723 183.84C177.221 186.136 176.91 188.575 176.801 191.09C176.695 193.52 176.645 195.886 176.645 198.176V286.582C176.645 290.687 177.041 294.624 177.823 298.283C178.629 302.058 179.995 305.396 181.885 308.216C183.813 311.088 186.397 313.407 189.57 315.11C192.741 316.807 196.669 317.67 201.249 317.67C206.099 317.67 210.222 316.774 213.501 315.006C216.777 313.234 219.415 310.839 221.349 307.886C223.234 305.006 224.563 301.643 225.301 297.888C226.009 294.264 226.367 290.459 226.367 286.582V166.163H205.469C200.847 166.163 196.874 166.602 193.663 167.467" fill="white"/>
<path d="M262.177 306.644C259.651 306.644 257.557 306.207 255.946 305.343C254.327 304.479 252.998 303.295 251.991 301.83C250.943 300.302 250.183 298.531 249.729 296.564C249.251 294.494 249.009 292.278 249.009 289.978V194.782C249.009 191.172 249.39 188.168 250.145 185.846C250.842 183.692 251.929 181.982 253.367 180.768C254.862 179.508 256.805 178.6 259.142 178.062C261.647 177.483 264.675 177.19 268.145 177.19H275.034V289.978C275.034 292.334 274.775 294.595 274.269 296.694C273.779 298.711 273.013 300.492 271.997 301.991C271.013 303.435 269.757 304.548 268.158 305.391C266.583 306.224 264.571 306.644 262.177 306.644ZM254.178 167.467C250.881 168.356 248.114 169.632 245.958 171.263C243.779 172.904 242.051 174.852 240.821 177.046C239.627 179.171 238.758 181.455 238.238 183.84C237.735 186.136 237.425 188.575 237.315 191.09C237.21 193.52 237.159 195.886 237.159 198.176V286.582C237.159 290.687 237.555 294.624 238.338 298.283C239.143 302.058 240.51 305.396 242.399 308.216C244.327 311.088 246.911 313.407 250.085 315.11C253.255 316.807 257.183 317.67 261.763 317.67C266.614 317.67 270.737 316.774 274.015 315.006C277.291 313.234 279.93 310.839 281.863 307.886C283.749 305.006 285.078 301.643 285.815 297.888C286.523 294.264 286.882 290.459 286.882 286.582V166.163H265.983C261.362 166.163 257.389 166.602 254.178 167.467" fill="white"/>
<path d="M311.068 194.676C311.068 191.178 311.522 188.249 312.419 185.961C313.27 183.782 314.523 182.036 316.144 180.761C317.816 179.449 319.863 178.505 322.227 177.961C324.744 177.38 327.67 177.086 330.924 177.086H332.988V166.061H330.924C325.836 166.061 321.46 166.513 317.914 167.406C314.307 168.32 311.274 169.573 308.9 171.132C306.451 172.736 304.54 174.676 303.212 176.896C301.948 179.017 301.006 181.32 300.411 183.738C299.832 186.085 299.484 188.54 299.374 191.037C299.27 193.436 299.216 195.781 299.216 198.073V315.612H343.898V304.589H311.068V194.676Z" fill="white"/>
<path d="M360.367 241.409H390.417V230.381H360.367V196.737C360.367 193.127 360.748 190.122 361.501 187.802C362.2 185.649 363.284 183.938 364.728 182.722C366.219 181.466 368.16 180.555 370.497 180.018C373.013 179.437 376.045 179.142 379.503 179.142H390.315V168.118H377.34C372.72 168.118 368.747 168.558 365.535 169.423C362.239 170.311 359.473 171.587 357.313 173.218C355.133 174.865 353.407 176.811 352.176 179.001C350.983 181.129 350.115 183.414 349.596 185.795C349.091 188.094 348.781 190.534 348.673 193.047C348.568 195.477 348.516 197.838 348.516 200.133V315.611H392.888V304.589H360.367V241.409Z" fill="white"/>
<path d="M441.158 173.189C438.924 170.991 436.261 169.235 433.252 167.969C427.408 165.517 420.004 165.394 413.786 167.853C410.769 169.043 408.105 170.726 405.868 172.854C403.616 174.994 401.81 177.611 400.506 180.635C399.198 183.658 398.534 186.997 398.534 190.561V203.118C398.534 206.815 399.196 210.239 400.502 213.291C401.766 216.258 403.454 219.083 405.516 221.689C407.55 224.257 409.888 226.703 412.464 228.957C414.978 231.166 417.512 233.334 420.062 235.474C422.17 237.241 424.245 239.046 426.286 240.879C428.258 242.654 430.037 244.513 431.57 246.407C433.068 248.254 434.269 250.181 435.148 252.133C435.988 253.986 436.41 255.985 436.41 258.077V293.067C436.41 294.994 436.092 296.807 435.466 298.453C434.846 300.077 433.95 301.506 432.808 302.706C431.668 303.91 430.28 304.881 428.682 305.589C425.632 306.945 421.254 307.026 418.04 305.629C416.494 304.961 415.153 304.019 414.054 302.829C412.925 301.61 412.021 300.162 411.368 298.523C410.714 296.893 410.384 295.058 410.384 293.067V268.874H398.534V293.169C398.534 296.585 399.158 299.827 400.389 302.805C401.624 305.799 403.372 308.419 405.584 310.594C407.79 312.762 410.432 314.499 413.437 315.762C416.454 317.027 419.789 317.669 423.344 317.669C426.745 317.669 429.997 317.066 433.006 315.878C436.02 314.69 438.686 312.986 440.941 310.811C443.184 308.646 444.982 306.034 446.285 303.05C447.596 300.055 448.257 296.73 448.257 293.169V258.077C448.257 254.661 447.612 251.409 446.342 248.414C445.112 245.515 443.481 242.734 441.505 240.147C439.549 237.59 437.301 235.143 434.821 232.879C432.402 230.663 429.941 228.511 427.457 226.442C425.266 224.599 423.114 222.757 420.994 220.906C418.958 219.131 417.114 217.258 415.517 215.331C413.96 213.458 412.686 211.463 411.737 209.405C410.84 207.458 410.384 205.342 410.384 203.118V190.662C410.384 188.733 410.702 186.919 411.33 185.277C411.953 183.646 412.834 182.209 413.95 181.003C415.054 179.813 416.434 178.85 418.048 178.149C421.117 176.805 425.362 176.679 428.71 178.102C430.288 178.773 431.638 179.715 432.737 180.901C433.865 182.121 434.773 183.569 435.426 185.205C436.08 186.842 436.41 188.678 436.41 190.662V213.722H448.257V190.561C448.257 187.141 447.632 183.913 446.402 180.966C445.172 178.019 443.409 175.401 441.158 173.189Z" fill="white"/>
<path d="M450.814 168.118V179.142H469.957V315.612H481.809V179.142H500.846V168.118H450.814Z" fill="white"/>
<path d="M232.528 105.65V96.3538H239.456V88.1631L249.905 78.5924V96.3538H259.749V105.65H249.905V131.498C249.905 135.639 250.135 138.198 250.593 139.17C251.052 140.142 252.196 140.624 254.029 140.624C255.973 140.624 257.88 140.26 259.749 139.526V149.039C257.073 149.994 254.396 150.47 251.721 150.47C248.532 150.47 245.945 149.764 243.965 148.351C241.988 146.943 240.74 145.174 240.227 143.046C239.713 140.92 239.456 137.254 239.456 132.046V105.65H232.528Z" fill="white"/>
<path d="M278.044 140.297V82.3864H268.42V73.093H288.493V102.46C294.764 97.401 300.721 94.8704 306.365 94.8704C309.885 94.8704 312.782 95.6037 315.057 97.0704C317.329 98.537 318.878 100.472 319.702 102.873C320.528 105.274 320.94 108.784 320.94 113.405V140.297H330.016V149.59H310.49V117.033C310.49 113.001 310.361 110.308 310.105 108.949C309.849 107.594 309.142 106.476 307.989 105.596C306.834 104.714 305.468 104.274 303.892 104.274C299.857 104.274 294.725 106.565 288.493 111.15V140.297H297.733V149.59H268.42V140.297H278.044Z" fill="white"/>
<path d="M377.273 118.024C376.538 114.284 374.597 110.902 371.442 107.877C368.29 104.852 364.421 103.341 359.84 103.341C355.658 103.341 352.085 104.706 349.117 107.438C346.145 110.168 344.33 113.697 343.672 118.024H377.273ZM388.05 125.612H343.286C343.945 130.525 345.889 134.504 349.117 137.546C352.341 140.59 356.466 142.112 361.489 142.112C368.785 142.112 374.558 139.177 378.812 133.313L388.05 137.381C385.045 142.038 381.141 145.494 376.337 147.749C371.534 150.004 366.512 151.132 361.269 151.132C353.13 151.132 346.174 148.593 340.4 143.513C334.624 138.436 331.738 131.589 331.738 122.973C331.738 114.798 334.55 108.07 340.178 102.79C345.806 97.5102 352.269 94.8702 359.566 94.8702C366.713 94.8702 373.193 97.4475 379.005 102.597C384.816 107.75 387.83 115.422 388.05 125.612Z" fill="white"/>
<path d="M208.456 125.748H119.731V118.052H208.456V125.748Z" fill="white"/>
<path d="M500.847 340.296H119.731V332.6H500.847V340.296Z" fill="white"/>
<path d="M500.847 125.748H412.123V118.052H500.847V125.748Z" fill="white"/>
<path d="M129.906 381.633C129.906 383.179 130.224 384.659 130.864 386.07C131.502 387.483 132.515 388.665 133.908 389.623C135.3 390.581 136.934 391.058 138.81 391.058C141.438 391.058 143.61 390.178 145.322 388.421C147.034 386.661 147.887 384.243 147.887 381.169C147.887 378.171 146.992 375.831 145.204 374.15C143.418 372.467 141.38 371.627 139.1 371.627C136.663 371.627 134.523 372.542 132.676 374.369C130.828 376.195 129.906 378.617 129.906 381.633ZM124.483 402.95V372.091H119.755V367.189H129.992V371.598C132.739 368.37 136.064 366.754 139.971 366.754C143.915 366.754 147.178 368.107 149.759 370.815C152.34 373.522 153.63 377.041 153.63 381.373C153.63 385.915 152.228 389.502 149.424 392.131C146.622 394.762 143.432 396.075 139.854 396.075C136.143 396.075 132.855 394.646 129.992 391.783V402.95H134.756V407.853H119.731V402.95H124.483Z" fill="white"/>
<path d="M162.243 390.363V359.825H157.255V354.922H167.755V390.363H172.047V395.265H157.255V390.363H162.243Z" fill="white"/>
<path d="M194.001 384.823C191.625 382.967 189.217 382.04 186.781 382.04C185.253 382.04 183.975 382.483 182.951 383.372C181.927 384.263 181.415 385.414 181.415 386.824C181.415 388.139 181.863 389.24 182.762 390.13C183.662 391.02 184.885 391.464 186.431 391.464C189.099 391.464 191.625 390.346 194.001 388.102V384.823ZM204.182 390.363V395.264H194.553V391.842C191.883 394.434 188.907 395.728 185.621 395.728C183.067 395.728 180.849 394.898 178.965 393.235C177.078 391.572 176.137 389.446 176.137 386.852C176.137 384.243 177.138 382.078 179.138 380.356C181.139 378.636 183.55 377.775 186.374 377.775C189.003 377.775 191.546 378.57 194.001 380.154V377.368C194.001 375.939 193.866 374.838 193.595 374.064C193.325 373.291 192.693 372.594 191.695 371.975C190.698 371.356 189.401 371.047 187.797 371.047C185.029 371.047 183.029 372.15 181.793 374.354L176.514 372.962C178.853 368.592 182.894 366.406 188.637 366.406C190.745 366.406 192.566 366.692 194.103 367.263C195.639 367.832 196.786 368.567 197.539 369.466C198.294 370.364 198.802 371.338 199.063 372.38C199.323 373.424 199.455 375.087 199.455 377.368V390.363H204.182Z" fill="white"/>
<path d="M233.648 367.189V377.806H228.717C228.466 375.774 227.64 374.218 226.237 373.134C224.837 372.051 223.208 371.511 221.349 371.511C218.876 371.511 216.865 372.386 215.317 374.135C213.772 375.886 212.998 378.182 212.998 381.025C212.998 383.674 213.732 386.007 215.202 388.029C216.673 390.05 218.797 391.058 221.582 391.058C225.449 391.058 228.253 389.222 229.994 385.549L234.548 387.695C232.033 393.282 227.634 396.075 221.349 396.075C216.902 396.075 213.404 394.559 210.852 391.522C208.3 388.487 207.024 384.989 207.024 381.025C207.024 376.79 208.416 373.295 211.2 370.539C213.985 367.783 217.193 366.406 220.829 366.406C223.942 366.406 226.57 367.326 228.717 369.161V367.189H233.648Z" fill="white"/>
<path d="M262.042 378.617C261.657 376.645 260.63 374.861 258.968 373.266C257.305 371.67 255.265 370.873 252.848 370.873C250.645 370.873 248.758 371.592 247.193 373.034C245.628 374.476 244.67 376.336 244.322 378.617H262.042ZM267.728 382.618H244.118C244.466 385.21 245.49 387.308 247.193 388.913C248.894 390.518 251.07 391.32 253.72 391.32C257.566 391.32 260.613 389.773 262.853 386.68L267.728 388.826C266.141 391.281 264.082 393.104 261.55 394.293C259.016 395.482 256.366 396.076 253.602 396.076C249.31 396.076 245.642 394.738 242.596 392.06C239.55 389.381 238.028 385.77 238.028 381.226C238.028 376.917 239.513 373.366 242.481 370.584C245.448 367.798 248.856 366.406 252.704 366.406C256.473 366.406 259.892 367.765 262.957 370.481C266.02 373.198 267.612 377.245 267.728 382.618" fill="white"/>
<path d="M290.291 357.647C290.291 356.758 290.604 355.985 291.232 355.329C291.862 354.673 292.659 354.342 293.626 354.342C294.535 354.342 295.318 354.661 295.976 355.299C296.632 355.938 296.962 356.721 296.962 357.647C296.962 358.575 296.632 359.363 295.976 360.011C295.318 360.659 294.535 360.983 293.626 360.983C292.698 360.983 291.908 360.655 291.262 359.998C290.614 359.341 290.291 358.558 290.291 357.647ZM291.074 390.363V372.091H286.724V367.189H296.583V390.363H300.935V395.265H286.724V390.363H291.074Z" fill="white"/>
<path d="M314.159 367.189V370.583C317.697 368.031 320.927 366.754 323.847 366.754C325.663 366.754 327.167 367.185 328.355 368.046C329.546 368.906 330.323 369.958 330.69 371.207C331.058 372.453 331.242 374.275 331.242 376.673V390.363H335.969V395.265H325.733V376.906C325.733 374.779 325.411 373.391 324.774 372.743C324.135 372.097 323.354 371.771 322.426 371.771C319.99 371.771 317.234 372.961 314.159 375.339V390.363H319.003V395.265H303.719V390.363H308.647V372.091H303.719V367.189H314.159Z" fill="white"/>
<path d="M357.316 390.363V359.825H352.239V354.922H362.825V370.41C366.132 367.741 369.275 366.406 372.251 366.406C374.108 366.406 375.635 366.794 376.835 367.567C378.033 368.339 378.849 369.361 379.285 370.626C379.72 371.894 379.937 373.745 379.937 376.181V390.363H384.723V395.265H374.427V378.094C374.427 375.967 374.359 374.547 374.225 373.831C374.089 373.117 373.716 372.527 373.108 372.061C372.499 371.598 371.777 371.366 370.947 371.366C368.82 371.366 366.113 372.574 362.825 374.993V390.363H367.697V395.265H352.239V390.363H357.316Z" fill="white"/>
<path d="M405.661 384.823C403.285 382.967 400.877 382.04 398.441 382.04C396.913 382.04 395.636 382.483 394.612 383.372C393.588 384.263 393.076 385.414 393.076 386.824C393.076 388.139 393.524 389.24 394.422 390.13C395.322 391.02 396.545 391.464 398.092 391.464C400.76 391.464 403.285 390.346 405.661 388.102V384.823ZM415.842 390.363V395.264H406.213V391.842C403.544 394.434 400.568 395.728 397.281 395.728C394.728 395.728 392.509 394.898 390.625 393.235C388.738 391.572 387.797 389.446 387.797 386.852C387.797 384.243 388.798 382.078 390.798 380.356C392.8 378.636 395.21 377.775 398.034 377.775C400.664 377.775 403.206 378.57 405.661 380.154V377.368C405.661 375.939 405.525 374.838 405.256 374.064C404.985 373.291 404.353 372.594 403.356 371.975C402.358 371.356 401.061 371.047 399.456 371.047C396.689 371.047 394.689 372.15 393.453 374.354L388.174 372.962C390.513 368.592 394.554 366.406 400.297 366.406C402.405 366.406 404.226 366.692 405.764 367.263C407.3 367.832 408.446 368.567 409.2 369.466C409.954 370.364 410.462 371.338 410.724 372.38C410.984 373.424 411.116 375.087 411.116 377.368V390.363H415.842Z" fill="white"/>
<path d="M428.631 367.189V370.583C432.17 368.031 435.399 366.754 438.32 366.754C440.136 366.754 441.64 367.185 442.827 368.046C444.018 368.906 444.795 369.958 445.163 371.207C445.53 372.453 445.714 374.275 445.714 376.673V390.363H450.442V395.265H440.204V376.906C440.204 374.779 439.884 373.391 439.247 372.743C438.607 372.097 437.826 371.771 436.898 371.771C434.462 371.771 431.707 372.961 428.631 375.339V390.363H433.476V395.265H418.192V390.363H423.12V372.091H418.192V367.189H428.631Z" fill="white"/>
<path d="M458.736 381.212C458.736 383.984 459.602 386.253 461.331 388.025C463.062 389.796 465.174 390.683 467.668 390.683C470.203 390.683 472.322 389.788 474.035 387.996C475.746 386.205 476.602 383.944 476.602 381.212C476.602 378.46 475.731 376.195 473.991 374.412C472.251 372.632 470.143 371.741 467.668 371.741C465.076 371.741 462.942 372.653 461.259 374.472C459.576 376.293 458.736 378.537 458.736 381.212ZM452.906 381.227C452.906 376.897 454.338 373.344 457.2 370.569C460.059 367.795 463.551 366.407 467.668 366.407C471.71 366.407 475.179 367.775 478.082 370.511C480.982 373.245 482.431 376.819 482.431 381.227C482.431 385.635 480.986 389.212 478.096 391.959C475.206 394.703 471.73 396.075 467.668 396.075C463.491 396.075 459.987 394.684 457.154 391.9C454.323 389.117 452.906 385.559 452.906 381.227" fill="white"/>
<path d="M490.204 357.647C490.204 356.758 490.517 355.985 491.145 355.329C491.774 354.673 492.572 354.342 493.538 354.342C494.448 354.342 495.23 354.661 495.889 355.299C496.545 355.938 496.874 356.721 496.874 357.647C496.874 358.575 496.545 359.363 495.889 360.011C495.23 360.659 494.448 360.983 493.538 360.983C492.61 360.983 491.821 360.655 491.174 359.998C490.526 359.341 490.204 358.558 490.204 357.647ZM490.986 390.363V372.091H486.636V367.189H496.496V390.363H500.846V395.265H486.636V390.363H490.986Z" fill="white"/>
</svg>
